<?xml version="1.0" standalone="no"?>
<!DOCTYPE svg PUBLIC "-//W3C//DTD SVG 20010904//EN"
 "http://www.w3.org/TR/2001/REC-SVG-20010904/DTD/svg10.dtd">
<svg version="1.0" xmlns="http://www.w3.org/2000/svg"
 width="600.000000pt" height="600.000000pt" viewBox="0 0 600.000000 600.000000"
 preserveAspectRatio="xMidYMid meet">
<metadata>
Created by potrace 1.10, written by Peter Selinger 2001-2011
</metadata>
<g transform="translate(0.000000,600.000000) scale(0.100000,-0.100000)"
fill="#000000" stroke="none">
<path d="M3960 5338 c0 -11 32 -63 70 -114 39 -51 70 -95 70 -99 0 -4 14 -24
30 -45 17 -21 30 -45 30 -53 0 -8 7 -20 15 -27 8 -7 15 -20 15 -30 0 -10 7
-23 15 -30 8 -7 15 -20 15 -30 0 -10 7 -23 15 -30 8 -7 15 -23 15 -36 0 -12 7
-29 15 -38 8 -8 15 -23 15 -33 0 -11 7 -28 15 -39 8 -10 15 -31 15 -45 0 -14
7 -34 15 -45 8 -10 15 -41 15 -69 0 -27 7 -63 16 -80 24 -45 24 -460 0 -524
-9 -24 -16 -55 -16 -69 0 -29 -26 -106 -47 -137 -7 -11 -13 -29 -13 -42 0 -12
-4 -24 -9 -28 -6 -3 -20 -27 -33 -53 -13 -26 -28 -51 -34 -57 -7 -5 -23 -28
-37 -51 -32 -51 -140 -160 -189 -189 -9 -5 -41 -27 -72 -47 -30 -21 -63 -38
-74 -38 -11 0 -25 -7 -32 -15 -7 -8 -20 -15 -29 -15 -10 0 -26 -7 -37 -15 -10
-8 -32 -15 -49 -15 -16 0 -41 -7 -55 -15 -14 -8 -41 -14 -60 -15 -19 0 -47 -6
-62 -14 -16 -9 -77 -17 -150 -21 -92 -5 -125 -11 -133 -22 -10 -13 -21 -14
-84 -3 -52 9 -79 9 -95 2 -11 -6 -30 -12 -41 -14 -14 -3 -19 -10 -17 -23 5
-28 9 -30 28 -14 12 9 37 13 83 10 71 -3 91 -13 91 -42 0 -15 -8 -19 -42 -21
-24 -1 -52 -1 -63 -1 -11 1 -37 -5 -58 -13 -20 -8 -55 -14 -76 -14 -66 0 -99
-11 -134 -45 -43 -42 -65 -41 -207 10 -89 32 -316 39 -405 12 -22 -6 -48 -20
-57 -29 -10 -10 -31 -18 -48 -18 -20 0 -39 -11 -63 -35 -19 -19 -39 -35 -45
-35 -6 0 -14 -9 -17 -20 -4 -11 -17 -32 -31 -47 -13 -14 -24 -34 -24 -45 0
-10 -7 -29 -15 -41 -18 -29 -12 -124 9 -146 15 -14 16 -11 16 26 0 23 6 48 14
55 7 8 17 25 21 38 20 62 84 139 142 170 21 12 45 25 53 29 8 5 39 16 68 26
71 23 306 24 351 1 16 -9 40 -16 53 -16 13 0 32 -7 42 -15 11 -8 30 -15 42
-15 12 0 27 -7 34 -15 7 -8 20 -15 30 -15 10 0 23 -7 30 -15 7 -8 23 -15 35
-15 13 0 25 -4 27 -8 4 -11 266 -142 283 -142 7 0 18 -7 25 -15 7 -8 25 -15
40 -15 15 0 33 -7 40 -15 7 -8 23 -15 37 -15 13 0 34 -5 46 -12 52 -28 356
-56 363 -33 8 24 -16 37 -77 42 -35 3 -76 12 -91 19 -15 8 -40 14 -56 14 -16
0 -35 7 -42 15 -7 8 -23 15 -35 15 -12 0 -28 7 -35 15 -7 8 -23 15 -35 15 -12
0 -28 7 -35 15 -7 8 -20 15 -30 15 -10 0 -23 7 -30 15 -7 8 -21 15 -31 15 -10
0 -21 4 -24 10 -3 5 -30 21 -58 35 -29 14 -59 29 -67 34 -8 4 -25 13 -38 20
-13 6 -47 25 -76 41 -30 15 -66 30 -82 32 -22 2 -30 9 -32 27 l-4 24 94 -5
c51 -3 138 -2 193 3 55 4 143 11 195 14 52 4 113 11 135 17 22 5 65 13 95 18
30 4 69 12 85 18 118 40 132 43 162 28 56 -29 101 -46 122 -46 12 0 32 -7 45
-15 13 -9 53 -17 92 -19 38 -2 77 -7 87 -11 9 -4 27 -4 40 0 12 4 42 9 67 12
25 2 58 12 75 21 50 28 115 82 115 97 0 7 5 15 12 17 6 2 9 10 7 17 -3 9 -21
-1 -54 -28 -85 -70 -222 -97 -356 -70 -99 20 -124 27 -193 53 -85 32 -156 34
-234 5 -63 -24 -130 -35 -273 -45 -94 -7 -97 -6 -104 15 -4 13 -5 24 -2 27 9
9 246 22 315 17 84 -7 101 11 22 22 -69 9 -63 25 9 25 33 0 71 7 87 15 16 8
36 15 44 15 9 0 20 4 25 8 6 4 37 19 70 31 33 13 67 30 76 37 8 8 19 14 23 14
5 0 28 14 53 30 24 17 46 30 49 30 8 0 67 53 119 106 88 91 103 111 157 214
10 19 25 40 32 46 19 14 55 116 66 184 5 30 13 71 19 90 6 19 11 55 11 80 1
25 7 63 15 85 13 35 13 61 0 205 -9 91 -22 188 -30 217 -8 28 -15 65 -15 83 0
56 -51 208 -72 213 -12 4 -18 14 -18 34 0 15 -9 42 -21 58 -11 17 -31 54 -45
84 -13 29 -42 80 -64 112 -30 45 -40 69 -40 99 0 22 -4 40 -10 40 -5 0 -10 -7
-10 -15 0 -8 -4 -15 -9 -15 -12 0 -58 48 -81 85 -26 41 -50 53 -50 23z"/>
<path d="M3880 5331 c-5 -11 -10 -40 -10 -65 0 -25 -4 -48 -10 -51 -5 -3 -10
-31 -10 -61 0 -47 -3 -54 -19 -54 -11 0 -22 -8 -25 -18 -4 -10 -16 -29 -28
-42 -14 -15 -21 -34 -19 -48 3 -27 -29 -60 -119 -119 -55 -37 -204 -114 -276
-144 -22 -8 -56 -23 -77 -32 -21 -9 -44 -17 -52 -17 -8 0 -31 -9 -52 -20 -21
-10 -60 -24 -88 -31 -27 -6 -63 -17 -80 -24 -16 -6 -57 -20 -90 -30 -33 -10
-67 -24 -75 -30 -8 -7 -46 -20 -83 -30 -37 -9 -73 -23 -80 -30 -7 -6 -27 -14
-44 -18 -18 -4 -63 -20 -100 -37 -155 -71 -263 -125 -263 -132 0 -16 39 -7 93
22 31 17 63 30 72 30 8 0 15 5 15 10 0 6 6 10 13 10 7 0 29 9 50 20 20 11 44
20 52 20 15 0 23 3 83 33 19 9 41 17 50 17 9 0 30 7 46 15 15 8 39 15 51 15
13 0 30 6 38 14 8 8 32 18 53 22 21 4 48 13 59 20 11 8 29 14 42 14 12 0 25 5
28 10 3 6 24 10 45 10 21 0 45 7 54 15 8 8 25 15 38 15 13 0 33 7 44 15 10 8
30 15 42 15 13 0 36 6 50 13 15 8 42 21 60 30 19 9 40 17 48 17 8 0 31 9 51
20 21 11 43 20 50 20 7 0 13 4 13 9 0 5 11 12 25 15 14 4 25 11 25 16 0 6 8
10 19 10 10 0 24 7 31 15 7 8 18 15 24 15 6 0 26 14 44 30 18 17 35 30 37 30
6 0 75 70 75 76 0 3 13 19 30 37 16 18 30 39 30 48 0 9 7 22 15 29 8 7 15 24
15 39 0 15 4 31 9 37 18 17 19 204 1 204 -5 0 -14 -9 -20 -19z"/>
<path d="M2227 4270 c-14 -11 -28 -20 -31 -20 -3 0 -17 -11 -32 -25 -19 -17
-22 -25 -12 -25 9 0 18 7 22 15 3 8 12 15 20 15 22 0 76 33 76 48 0 17 -14 15
-43 -8z"/>
<path d="M2090 4175 c0 -9 6 -12 15 -9 8 4 15 10 15 15 0 5 -7 9 -15 9 -8 0
-15 -7 -15 -15z"/>
<path d="M2015 4120 c-3 -5 3 -10 14 -10 12 0 21 5 21 10 0 6 -6 10 -14 10 -8
0 -18 -4 -21 -10z"/>
<path d="M3615 4078 c-11 -6 -24 -17 -28 -25 -4 -7 -12 -13 -17 -13 -5 0 -29
-13 -53 -30 -25 -16 -53 -30 -63 -30 -9 0 -25 -6 -33 -13 -9 -7 -36 -21 -61
-31 -25 -10 -58 -24 -73 -32 -16 -8 -39 -14 -52 -14 -12 0 -28 -7 -35 -15 -7
-8 -23 -15 -37 -15 -13 0 -40 -7 -60 -15 -19 -8 -45 -15 -57 -15 -12 0 -31 -7
-42 -15 -10 -8 -36 -15 -57 -15 -22 0 -53 -6 -70 -14 -18 -8 -56 -16 -86 -19
-29 -2 -56 -9 -60 -14 -3 -6 -37 -13 -75 -16 -37 -4 -74 -12 -82 -18 -8 -6
-37 -13 -66 -15 -28 -2 -56 -9 -62 -15 -20 -20 253 9 278 30 6 5 40 11 76 13
67 4 359 76 418 103 18 8 43 15 55 15 22 0 22 -1 -3 -20 -14 -11 -29 -20 -34
-20 -5 0 -37 -13 -70 -29 -34 -16 -88 -37 -121 -46 -33 -9 -73 -23 -90 -30
-49 -23 -132 -45 -165 -45 -17 0 -57 -12 -88 -27 -31 -14 -83 -29 -116 -32
-34 -4 -61 -11 -64 -18 -6 -19 112 -18 127 1 12 15 42 21 153 35 37 4 73 13
80 18 7 6 32 14 55 18 24 4 45 11 49 16 3 5 18 9 33 9 15 0 36 7 47 15 10 8
27 15 37 15 19 0 78 23 107 41 8 5 22 12 30 15 30 11 96 45 125 64 17 11 40
24 51 29 12 5 23 14 25 18 2 5 31 29 64 55 63 48 112 98 133 136 13 24 7 27
-23 10z"/>
<path d="M2316 3661 c-3 -5 -27 -12 -52 -16 -34 -5 -44 -9 -35 -18 8 -8 23 -8
56 1 25 7 55 12 68 12 12 1 36 7 52 15 30 13 29 13 -27 14 -31 1 -59 -3 -62
-8z"/>
<path d="M2120 3600 c0 -5 14 -10 30 -10 17 0 30 5 30 10 0 6 -13 10 -30 10
-16 0 -30 -4 -30 -10z"/>
<path d="M2405 3550 c-3 -5 -16 -10 -29 -10 -12 0 -31 -7 -42 -15 -18 -13 -16
-14 23 -15 23 0 44 4 47 9 3 4 28 11 56 15 27 4 50 11 50 16 0 13 -97 13 -105
0z"/>
<path d="M2220 3485 c-14 -8 -33 -14 -42 -15 -10 0 -18 -4 -18 -10 0 -16 50
-12 66 5 9 8 29 15 45 15 16 0 29 5 29 10 0 15 -51 12 -80 -5z"/>
<path d="M2095 3430 c-3 -5 3 -10 14 -10 12 0 21 5 21 10 0 6 -6 10 -14 10 -8
0 -18 -4 -21 -10z"/>
<path d="M2035 3400 c-3 -5 3 -10 14 -10 12 0 21 5 21 10 0 6 -6 10 -14 10 -8
0 -18 -4 -21 -10z"/>
<path d="M2640 3100 c-11 -7 -1 -10 35 -10 36 0 46 3 35 10 -8 5 -24 10 -35
10 -11 0 -27 -5 -35 -10z"/>
<path d="M2882 3101 c-18 -11 7 -21 50 -21 26 0 29 2 18 15 -14 16 -47 20 -68
6z"/>
<path d="M2370 3090 c0 -5 14 -10 31 -10 17 0 28 4 24 10 -3 6 -17 10 -31 10
-13 0 -24 -4 -24 -10z"/>
<path d="M4495 3043 c-4 -31 -11 -65 -16 -77 -5 -12 -13 -59 -18 -106 -10 -93
-26 -161 -47 -202 -8 -14 -14 -34 -14 -45 0 -10 -7 -27 -15 -37 -8 -11 -15
-27 -15 -37 0 -9 -7 -22 -15 -29 -8 -7 -15 -23 -15 -35 0 -13 -7 -25 -15 -29
-8 -3 -15 -12 -15 -21 0 -8 -4 -15 -10 -15 -5 0 -12 -11 -16 -25 -3 -14 -10
-25 -14 -25 -5 0 -18 -17 -31 -37 -28 -47 -186 -203 -205 -203 -8 0 -17 -7
-20 -15 -4 -8 -12 -15 -19 -15 -7 0 -18 -7 -25 -15 -7 -8 -21 -15 -31 -15 -9
0 -24 -7 -33 -15 -8 -8 -21 -15 -28 -15 -8 0 -23 -7 -34 -15 -10 -8 -33 -15
-51 -15 -17 0 -44 -5 -60 -12 -42 -17 -210 -19 -242 -2 -14 8 -38 14 -53 14
-14 0 -39 6 -55 14 -15 8 -46 22 -68 32 -89 39 -110 49 -116 57 -3 4 -23 17
-45 29 -21 11 -41 23 -44 27 -11 13 -70 51 -80 51 -5 0 -10 4 -10 8 0 5 -30
30 -66 57 -36 26 -81 63 -99 82 -17 18 -35 33 -39 33 -4 0 -13 6 -21 13 -7 6
-30 26 -50 42 -21 17 -45 37 -54 46 -9 9 -29 25 -46 35 -16 10 -56 38 -89 61
-32 24 -64 43 -71 43 -7 0 -18 7 -25 15 -7 8 -22 15 -34 15 -11 0 -30 7 -40
15 -15 11 -48 15 -123 15 -86 0 -109 -4 -145 -22 -24 -12 -44 -26 -46 -30 -2
-4 -10 -8 -17 -8 -7 0 -29 -19 -49 -42 -20 -24 -44 -51 -53 -60 -15 -17 -15
-18 0 -18 9 0 17 5 17 10 0 6 10 10 23 10 12 0 45 11 72 25 28 13 57 25 65 25
8 0 28 9 44 19 22 15 35 17 54 10 14 -6 37 -7 52 -4 15 3 49 -2 76 -11 77 -26
194 -83 194 -94 0 -6 16 -18 35 -26 20 -8 41 -26 47 -39 6 -14 17 -25 25 -25
8 0 26 -13 41 -29 15 -15 39 -31 54 -35 17 -4 30 -15 34 -29 3 -13 21 -29 43
-40 21 -9 62 -40 90 -67 29 -28 58 -50 66 -50 8 0 17 -5 20 -10 11 -18 119
-87 147 -94 15 -3 32 -15 38 -26 6 -12 21 -20 36 -20 13 0 53 -13 88 -29 135
-61 341 -76 485 -35 74 21 264 116 306 152 11 10 29 21 38 25 9 3 17 13 17 20
0 8 29 44 65 80 36 36 65 73 65 82 0 8 11 20 25 25 14 5 25 17 25 26 0 9 9 27
20 41 11 14 20 33 20 41 0 9 13 43 28 76 34 73 51 118 63 171 6 21 14 44 18
50 18 22 40 365 23 365 -5 0 -13 -25 -17 -57z"/>
<path d="M2218 3073 c-10 -2 -18 -9 -18 -14 0 -12 127 -12 135 1 3 6 -4 10
-18 10 -14 0 -37 2 -53 4 -16 2 -37 2 -46 -1z"/>
<path d="M2115 3030 c-3 -5 3 -10 14 -10 12 0 21 5 21 10 0 6 -6 10 -14 10 -8
0 -18 -4 -21 -10z"/>
<path d="M2055 3000 c-3 -5 3 -10 14 -10 11 0 23 5 26 10 3 6 -3 10 -14 10
-11 0 -23 -4 -26 -10z"/>
<path d="M2375 1990 c-18 -8 -17 -9 8 -9 15 -1 27 4 27 9 0 12 -8 12 -35 0z"/>
<path d="M2400 1920 c0 -5 9 -10 20 -10 11 0 20 5 20 10 0 6 -9 10 -20 10 -11
0 -20 -4 -20 -10z"/>
<path d="M2300 1890 c0 -5 9 -10 20 -10 11 0 20 5 20 10 0 6 -9 10 -20 10 -11
0 -20 -4 -20 -10z"/>
<path d="M3284 1050 c-23 -16 -54 -48 -70 -71 -28 -42 -29 -45 -29 -169 1
-140 8 -160 80 -230 29 -28 43 -34 75 -34 46 2 119 47 212 133 121 111 133
201 42 307 -57 68 -114 94 -202 94 -60 0 -73 -4 -108 -30z m208 -86 c50 -26
67 -53 68 -107 0 -40 -5 -53 -32 -82 -27 -31 -37 -35 -79 -35 -26 0 -50 -4
-53 -9 -3 -5 -1 -23 5 -41 8 -20 8 -35 2 -41 -15 -15 -101 -21 -109 -7 -5 8
-9 312 -4 336 0 1 38 2 85 2 60 0 96 -5 117 -16z"/>
<path d="M3384 876 c-12 -31 0 -51 31 -51 27 0 30 3 30 30 0 25 -4 30 -28 33
-17 2 -29 -2 -33 -12z"/>
<path d="M3980 1043 c-61 -53 -70 -81 -70 -228 0 -147 9 -175 70 -228 63 -54
103 -52 164 8 26 24 51 56 56 70 6 15 10 82 10 150 0 68 -4 135 -10 150 -5 14
-30 46 -56 70 -61 60 -101 62 -164 8z m125 -54 c4 -6 7 -84 7 -174 0 -90 -3
-168 -7 -174 -8 -14 -95 -14 -96 -1 0 6 0 84 0 175 0 91 0 170 0 175 1 13 88
13 96 -1z"/>
<path d="M424 1056 c-41 -18 -92 -81 -105 -131 -7 -23 -9 -84 -7 -141 5 -118
19 -150 88 -202 40 -31 48 -33 85 -27 49 9 101 9 178 0 l58 -8 53 55 c60 62
66 81 66 207 0 108 -11 147 -55 198 -47 56 -86 68 -151 48 -45 -13 -57 -13
-100 0 -59 18 -70 18 -110 1z m316 -247 c0 -128 -3 -169 -12 -170 -85 -7 -107
6 -149 86 -51 96 -89 95 -66 -3 8 -33 11 -66 7 -72 -12 -19 -91 -25 -104 -8
-7 10 -10 70 -8 176 l3 162 49 0 50 0 37 -62 c79 -129 113 -138 89 -22 -8 38
-12 72 -8 76 8 8 81 15 100 10 9 -3 12 -47 12 -173z"/>
<path d="M1245 984 c-89 -33 -174 -157 -161 -237 10 -58 29 -88 90 -145 93
-85 185 -89 268 -14 50 45 66 81 74 169 7 76 -2 102 -53 163 -30 37 -115 80
-153 79 -14 0 -43 -7 -65 -15z m155 -121 c34 -36 43 -63 34 -98 -7 -27 -7 -27
-71 -21 -59 6 -64 5 -61 -11 3 -14 13 -18 47 -16 34 2 48 -3 62 -20 26 -32 23
-44 -13 -52 -18 -4 -40 -12 -50 -18 -12 -8 -23 -8 -40 0 -13 7 -34 15 -48 19
-14 4 -36 18 -50 31 -21 21 -25 34 -25 88 0 54 4 67 25 90 34 37 57 45 114 41
38 -3 54 -10 76 -33z"/>
<path d="M1285 820 c-4 -7 -3 -16 3 -22 14 -14 47 -6 47 12 0 18 -40 26 -50
10z"/>
<path d="M2608 990 c-67 -20 -149 -118 -162 -193 -14 -78 56 -197 141 -240 39
-20 142 -28 187 -16 46 13 114 73 133 116 18 45 17 177 -3 219 -22 46 -85 100
-131 113 -44 12 -126 13 -165 1z m208 -103 c12 -11 6 -240 -6 -247 -6 -4 -34
-3 -62 1 -38 6 -55 5 -73 -7 -22 -14 -26 -13 -62 9 -53 34 -73 67 -73 122 0
55 33 114 70 127 21 7 198 3 206 -5z"/>
<path d="M2651 802 c-12 -15 -21 -31 -21 -37 0 -20 48 -58 65 -52 24 10 38 49
26 78 -14 38 -45 42 -70 11z"/>
<path d="M4606 985 c-79 -28 -156 -132 -156 -211 0 -61 15 -101 60 -154 57
-68 127 -94 224 -85 63 7 73 11 114 49 25 22 51 55 58 73 18 42 18 175 0 216
-24 56 -89 109 -143 118 -70 11 -113 10 -157 -6z m129 -94 c17 1 43 2 59 3
l29 1 0 -123 c0 -68 -4 -127 -9 -132 -5 -5 -31 -4 -58 1 -39 7 -54 6 -72 -6
-20 -13 -26 -12 -56 2 -65 32 -78 52 -78 120 0 45 6 72 20 95 24 40 44 49 95
43 22 -3 54 -4 70 -4z"/>
<path d="M4658 809 c-23 -25 -23 -62 0 -82 24 -22 35 -21 55 1 24 26 21 60 -5
83 -28 22 -29 22 -50 -2z"/>
<path d="M5355 991 c-54 -9 -74 -22 -123 -75 -44 -48 -46 -54 -43 -169 2 -76
12 -99 66 -151 l45 -44 102 -4 c113 -4 136 2 180 49 40 41 58 94 58 167 0 82
-11 110 -63 165 -65 68 -111 80 -222 62z m164 -116 c15 -16 20 -39 23 -123 5
-112 2 -121 -47 -118 -52 3 -56 10 -49 90 6 69 5 74 -17 89 -35 25 -44 7 -44
-86 l0 -82 -38 -9 c-25 -7 -41 -6 -48 1 -11 11 -16 233 -6 250 3 4 51 8 106 8
87 0 103 -3 120 -20z"/>
<path d="M1894 976 c-17 -7 -46 -33 -65 -57 -33 -41 -34 -47 -35 -129 0 -47
-4 -97 -8 -111 -7 -23 -1 -33 40 -74 60 -59 77 -65 174 -65 72 0 81 3 126 33
27 19 54 44 60 56 7 14 11 68 9 143 l-2 120 -47 46 -46 47 -88 3 c-58 1 -97
-2 -118 -12z m76 -96 l21 -21 26 21 c17 13 41 20 69 20 56 0 58 -20 9 -73 -43
-47 -44 -75 -5 -112 30 -29 64 -84 56 -92 -9 -10 -128 26 -140 42 -14 19 -36
13 -36 -9 0 -8 -16 -16 -37 -20 -21 -3 -48 -9 -60 -12 -41 -11 -29 36 22 86
45 46 55 72 33 87 -7 5 -29 25 -48 46 -29 31 -32 39 -20 47 27 17 89 11 110
-10z"/>
</g>
</svg>
